<svg xmlns="http://www.w3.org/2000/svg" viewBox="0 0 160 160" width="160" height="160" overflow="visible" aria-hidden="true">
<defs>
  <filter id="neon-performance" filterUnits="userSpaceOnUse" x="-20" y="-20" width="200" height="200" color-interpolation-filters="sRGB">
    <feFlood flood-color="rgb(129,140,248)" result="color"/>
    <feColorMatrix in="SourceGraphic" type="matrix" result="bright" values="0 0 0 0 0  0 0 0 0 0  0 0 0 0 0  0.667 0.667 0.667 0 -0.85"/>
    <feComposite in="bright" in2="SourceAlpha" operator="in" result="lit"/>
    <feGaussianBlur in="lit" stdDeviation="1.5" result="b1"/>
    <feComponentTransfer in="b1" result="a1"><feFuncA type="linear" slope="0.7"/></feComponentTransfer>
    <feComposite in="color" in2="a1" operator="in" result="g1"/>
    <feGaussianBlur in="lit" stdDeviation="4" result="b2"/>
    <feComponentTransfer in="b2" result="a2"><feFuncA type="linear" slope="1.3"/></feComponentTransfer>
    <feComposite in="color" in2="a2" operator="in" result="g2"/>
    <feGaussianBlur in="lit" stdDeviation="10" result="b3"/>
    <feComponentTransfer in="b3" result="a3"><feFuncA type="linear" slope="2"/></feComponentTransfer>
    <feComposite in="color" in2="a3" operator="in" result="g3"/>
    <feMerge><feMergeNode in="g3"/><feMergeNode in="g2"/><feMergeNode in="g1"/><feMergeNode in="SourceGraphic"/></feMerge>
  </filter>
</defs>
<g filter="url(#neon-performance)" fill="none" stroke="#ffffff" stroke-width="2.4" stroke-linecap="round" stroke-linejoin="round">
<path d="M38.43 116.0 A48 48 0 1 1 121.57 116.0"/>
<line x1="45.36" y1="112.0" x2="50.56" y2="109.0"/><line x1="40.61" y1="85.05" x2="46.52" y2="86.1"/><line x1="54.29" y1="61.36" x2="58.15" y2="65.95"/><line x1="80.0" y1="52.0" x2="80.0" y2="58.0"/><line x1="105.71" y1="61.36" x2="101.85" y2="65.95"/><line x1="119.39" y1="85.05" x2="113.48" y2="86.1"/><line x1="114.64" y1="112.0" x2="109.44" y2="109.0"/>
<line x1="80" y1="92" x2="107.85" y2="72.5"/>
<circle cx="80" cy="92" r="5"/>
<polyline points="40,136 64,136 70,126 78,146 86,128 92,136 120,136"/>
</g>
</svg>
